<?xml version="1.0" encoding="UTF-8" standalone="no"?>
<!DOCTYPE svg PUBLIC "-//W3C//DTD SVG 1.1//EN"
 "http://www.w3.org/Graphics/SVG/1.1/DTD/svg11.dtd">
<!-- Generated by graphviz version 2.40.1 (20161225.0304)
 -->
<!-- Title: G Pages: 1 -->
<svg width="317pt" height="97pt"
 viewBox="0.00 0.00 316.60 96.80" xmlns="http://www.w3.org/2000/svg" xmlns:xlink="http://www.w3.org/1999/xlink">
<g id="graph0" class="graph" transform="scale(1 1) rotate(0) translate(4 92.8)">
<title>G</title>
<polygon fill="#ffffff" stroke="transparent" points="-4,4 -4,-92.8 312.6038,-92.8 312.6038,4 -4,4"/>
<!-- index.js -->
<g id="node1" class="node">
<title>index.js</title>
<path fill="#e5e5e5" stroke="#000000" d="M51.7101,-57.7008C51.7101,-57.7008 8.2303,-57.7008 8.2303,-57.7008 4.13,-57.7008 .0298,-53.6005 .0298,-49.5003 .0298,-49.5003 .0298,-41.2997 .0298,-41.2997 .0298,-37.1995 4.13,-33.0992 8.2303,-33.0992 8.2303,-33.0992 51.7101,-33.0992 51.7101,-33.0992 55.8104,-33.0992 59.9106,-37.1995 59.9106,-41.2997 59.9106,-41.2997 59.9106,-49.5003 59.9106,-49.5003 59.9106,-53.6005 55.8104,-57.7008 51.7101,-57.7008"/>
<text text-anchor="middle" x="29.9702" y="-41.2" font-family="Times,serif" font-size="14.00" fill="#000000">index.js</text>
</g>
<!-- lib/context.js -->
<g id="node2" class="node">
<title>lib/context.js</title>
<path fill="#e5e5e5" stroke="#000000" d="M176.3164,-24.7008C176.3164,-24.7008 104.2818,-24.7008 104.2818,-24.7008 100.1815,-24.7008 96.0813,-20.6005 96.0813,-16.5003 96.0813,-16.5003 96.0813,-8.2997 96.0813,-8.2997 96.0813,-4.1995 100.1815,-.0992 104.2818,-.0992 104.2818,-.0992 176.3164,-.0992 176.3164,-.0992 180.4167,-.0992 184.5169,-4.1995 184.5169,-8.2997 184.5169,-8.2997 184.5169,-16.5003 184.5169,-16.5003 184.5169,-20.6005 180.4167,-24.7008 176.3164,-24.7008"/>
<text text-anchor="middle" x="140.2991" y="-8.2" font-family="Times,serif" font-size="14.00" fill="#000000">lib/context.js</text>
</g>
<!-- index.js&#45;&gt;lib/context.js -->
<g id="edge1" class="edge">
<title>index.js&#45;&gt;lib/context.js</title>
<path fill="none" stroke="#000000" d="M60.1181,-36.3826C69.1141,-33.6918 79.2362,-30.6643 89.1819,-27.6895"/>
<polygon fill="#000000" stroke="#000000" points="90.4429,-30.9656 99.0206,-24.7466 88.4369,-24.2591 90.4429,-30.9656"/>
</g>
<!-- lib/util.js -->
<g id="node3" class="node">
<title>lib/util.js</title>
<path fill="#e5e5e5" stroke="#000000" d="M289.6093,-88.7008C289.6093,-88.7008 239.6523,-88.7008 239.6523,-88.7008 235.552,-88.7008 231.4518,-84.6005 231.4518,-80.5003 231.4518,-80.5003 231.4518,-72.2997 231.4518,-72.2997 231.4518,-68.1995 235.552,-64.0992 239.6523,-64.0992 239.6523,-64.0992 289.6093,-64.0992 289.6093,-64.0992 293.7096,-64.0992 297.8098,-68.1995 297.8098,-72.2997 297.8098,-72.2997 297.8098,-80.5003 297.8098,-80.5003 297.8098,-84.6005 293.7096,-88.7008 289.6093,-88.7008"/>
<text text-anchor="middle" x="264.6308" y="-72.2" font-family="Times,serif" font-size="14.00" fill="#000000">lib/util.js</text>
</g>
<!-- index.js&#45;&gt;lib/util.js -->
<g id="edge2" class="edge">
<title>index.js&#45;&gt;lib/util.js</title>
<path fill="none" stroke="#000000" d="M60.1676,-49.3892C101.1366,-54.8015 174.5766,-64.5033 221.3882,-70.6874"/>
<polygon fill="#000000" stroke="#000000" points="221.1545,-74.1869 231.5268,-72.0268 222.0713,-67.2472 221.1545,-74.1869"/>
</g>
<!-- lib/context.js&#45;&gt;lib/util.js -->
<g id="edge4" class="edge">
<title>lib/context.js&#45;&gt;lib/util.js</title>
<path fill="none" stroke="#000000" d="M164.2715,-24.7398C183.4498,-34.6119 210.546,-48.5598 231.7503,-59.4747"/>
<polygon fill="#000000" stroke="#000000" points="230.2389,-62.6331 240.732,-64.098 233.4427,-56.4093 230.2389,-62.6331"/>
</g>
<!-- lib/session.js -->
<g id="node4" class="node">
<title>lib/session.js</title>
<path fill="#e5e5e5" stroke="#000000" d="M300.3763,-24.7008C300.3763,-24.7008 228.8853,-24.7008 228.8853,-24.7008 224.7851,-24.7008 220.6848,-20.6005 220.6848,-16.5003 220.6848,-16.5003 220.6848,-8.2997 220.6848,-8.2997 220.6848,-4.1995 224.7851,-.0992 228.8853,-.0992 228.8853,-.0992 300.3763,-.0992 300.3763,-.0992 304.4765,-.0992 308.5768,-4.1995 308.5768,-8.2997 308.5768,-8.2997 308.5768,-16.5003 308.5768,-16.5003 308.5768,-20.6005 304.4765,-24.7008 300.3763,-24.7008"/>
<text text-anchor="middle" x="264.6308" y="-8.2" font-family="Times,serif" font-size="14.00" fill="#000000">lib/session.js</text>
</g>
<!-- lib/context.js&#45;&gt;lib/session.js -->
<g id="edge3" class="edge">
<title>lib/context.js&#45;&gt;lib/session.js</title>
<path fill="none" stroke="#000000" d="M184.8345,-12.4C193.0577,-12.4 201.7296,-12.4 210.2065,-12.4"/>
<polygon fill="#000000" stroke="#000000" points="210.4064,-15.9001 220.4063,-12.4 210.4063,-8.9001 210.4064,-15.9001"/>
</g>
</g>
</svg>
