<svg width="100%" viewBox="0 0 472 221" xmlns="http://www.w3.org/2000/svg" xmlns:xlink="http://www.w3.org/1999/xlink">
<g id="graph0" class="graph" transform="scale(1 1) rotate(0) translate(4 216.4)">

<polygon fill="#ffffff" stroke="transparent" points="-4,4 -4,-216.4 467.9514,-216.4 467.9514,4 -4,4"></polygon>
<text text-anchor="middle" x="231.9757" y="-194" font-family="Roboto Condensed, sans-serif" font-size="16.00" fill="#000000">koa-session</text>
<!-- koa&#45;session@5.12.3 -->
<g id="node1" class="node module-koa_session maintainer-aheckmann maintainer-coderhaoxin maintainer-dead_horse maintainer-eivifj maintainer-fengmk2 maintainer-jongleberry maintainer-juliangruber maintainer-tjholowaychuk license-mit">

<path fill="none" stroke="#000000" d="M88.4549,-111.3011C88.4549,-111.3011 6.4933,-111.3011 6.4933,-111.3011 3.2596,-111.3011 .0259,-108.0674 .0259,-104.8337 .0259,-104.8337 .0259,-98.3663 .0259,-98.3663 .0259,-95.1326 3.2596,-91.8989 6.4933,-91.8989 6.4933,-91.8989 88.4549,-91.8989 88.4549,-91.8989 91.6886,-91.8989 94.9223,-95.1326 94.9223,-98.3663 94.9223,-98.3663 94.9223,-104.8337 94.9223,-104.8337 94.9223,-108.0674 91.6886,-111.3011 88.4549,-111.3011"></path>
<text text-anchor="middle" x="47.4741" y="-98.3" font-family="Roboto Condensed, sans-serif" font-size="11.00" fill="#000000">koa-session@5.12.3</text>
</g>
<!-- crc@3.8.0 -->
<g id="node2" class="node module-crc maintainer-alexgorbatchev license-mit">

<path fill="none" stroke="#000000" d="M190.4854,-167.3011C190.4854,-167.3011 152.3012,-167.3011 152.3012,-167.3011 149.0675,-167.3011 145.8338,-164.0674 145.8338,-160.8337 145.8338,-160.8337 145.8338,-154.3663 145.8338,-154.3663 145.8338,-151.1326 149.0675,-147.8989 152.3012,-147.8989 152.3012,-147.8989 190.4854,-147.8989 190.4854,-147.8989 193.7191,-147.8989 196.9528,-151.1326 196.9528,-154.3663 196.9528,-154.3663 196.9528,-160.8337 196.9528,-160.8337 196.9528,-164.0674 193.7191,-167.3011 190.4854,-167.3011"></path>
<text text-anchor="middle" x="171.3933" y="-154.3" font-family="Roboto Condensed, sans-serif" font-size="11.00" fill="#000000">crc@3.8.0</text>
</g>
<!-- koa&#45;session@5.12.3&#45;&gt;crc@3.8.0 -->
<g id="edge1" class="edge">

<path fill="none" stroke="#000000" d="M68.7233,-111.3332C85.5799,-119.0399 109.7492,-130.0577 130.9482,-139.6 133.9618,-140.9565 137.1042,-142.3652 140.2469,-143.7702"></path>
<polygon fill="#000000" stroke="#000000" points="138.9898,-147.0418 149.5483,-147.9185 141.8411,-140.6488 138.9898,-147.0418"></polygon>
</g>
<!-- uuid@3.3.3 -->
<g id="node3" class="node module-uuid maintainer-broofa maintainer-defunctzombie maintainer-vvo license-mit">

<path fill="none" stroke="#000000" d="M193.6136,-130.3011C193.6136,-130.3011 149.173,-130.3011 149.173,-130.3011 145.9393,-130.3011 142.7057,-127.0674 142.7057,-123.8337 142.7057,-123.8337 142.7057,-117.3663 142.7057,-117.3663 142.7057,-114.1326 145.9393,-110.8989 149.173,-110.8989 149.173,-110.8989 193.6136,-110.8989 193.6136,-110.8989 196.8473,-110.8989 200.0809,-114.1326 200.0809,-117.3663 200.0809,-117.3663 200.0809,-123.8337 200.0809,-123.8337 200.0809,-127.0674 196.8473,-130.3011 193.6136,-130.3011"></path>
<text text-anchor="middle" x="171.3933" y="-117.3" font-family="Roboto Condensed, sans-serif" font-size="11.00" fill="#000000">uuid@3.3.3</text>
</g>
<!-- koa&#45;session@5.12.3&#45;&gt;uuid@3.3.3 -->
<g id="edge2" class="edge">

<path fill="none" stroke="#000000" d="M95.0301,-108.8916C107.3829,-110.7856 120.5444,-112.8036 132.3993,-114.6212"></path>
<polygon fill="#000000" stroke="#000000" points="132.0128,-118.1028 142.4278,-116.1588 133.0737,-111.1836 132.0128,-118.1028"></polygon>
</g>
<!-- is&#45;type&#45;of@1.2.1 -->
<g id="node4" class="node module-is_type_of maintainer-dead_horse maintainer-fengmk2 license-mit">

<path fill="none" stroke="#000000" d="M205.3162,-93.3011C205.3162,-93.3011 137.4704,-93.3011 137.4704,-93.3011 134.2367,-93.3011 131.003,-90.0674 131.003,-86.8337 131.003,-86.8337 131.003,-80.3663 131.003,-80.3663 131.003,-77.1326 134.2367,-73.8989 137.4704,-73.8989 137.4704,-73.8989 205.3162,-73.8989 205.3162,-73.8989 208.5499,-73.8989 211.7836,-77.1326 211.7836,-80.3663 211.7836,-80.3663 211.7836,-86.8337 211.7836,-86.8337 211.7836,-90.0674 208.5499,-93.3011 205.3162,-93.3011"></path>
<text text-anchor="middle" x="171.3933" y="-80.3" font-family="Roboto Condensed, sans-serif" font-size="11.00" fill="#000000">is-type-of@1.2.1</text>
</g>
<!-- koa&#45;session@5.12.3&#45;&gt;is&#45;type&#45;of@1.2.1 -->
<g id="edge3" class="edge">

<path fill="none" stroke="#000000" d="M95.0301,-94.6922C103.3762,-93.4799 112.0915,-92.2139 120.5235,-90.9891"></path>
<polygon fill="#000000" stroke="#000000" points="121.2314,-94.4231 130.6244,-89.5219 120.2251,-87.4958 121.2314,-94.4231"></polygon>
</g>
<!-- debug@3.2.6 -->
<g id="node5" class="node module-debug maintainer-kolban maintainer-qix maintainer-qix_ maintainer-thebigredgeek maintainer-tjholowaychuk maintainer-tootallnate license-mit">

<path fill="none" stroke="#000000" d="M197.4387,-38.3011C197.4387,-38.3011 145.3479,-38.3011 145.3479,-38.3011 142.1142,-38.3011 138.8805,-35.0674 138.8805,-31.8337 138.8805,-31.8337 138.8805,-25.3663 138.8805,-25.3663 138.8805,-22.1326 142.1142,-18.8989 145.3479,-18.8989 145.3479,-18.8989 197.4387,-18.8989 197.4387,-18.8989 200.6724,-18.8989 203.9061,-22.1326 203.9061,-25.3663 203.9061,-25.3663 203.9061,-31.8337 203.9061,-31.8337 203.9061,-35.0674 200.6724,-38.3011 197.4387,-38.3011"></path>
<text text-anchor="middle" x="171.3933" y="-25.3" font-family="Roboto Condensed, sans-serif" font-size="11.00" fill="#000000">debug@3.2.6</text>
</g>
<!-- koa&#45;session@5.12.3&#45;&gt;debug@3.2.6 -->
<g id="edge4" class="edge">

<path fill="none" stroke="#000000" d="M63.9296,-91.9062C84.946,-79.5256 121.5293,-57.9746 146.0989,-43.5008"></path>
<polygon fill="#000000" stroke="#000000" points="148.0301,-46.4253 154.8697,-38.3339 144.4771,-40.394 148.0301,-46.4253"></polygon>
</g>
<!-- buffer@5.4.3 -->
<g id="node9" class="node module-buffer maintainer-feross license-mit">

<path fill="none" stroke="#000000" d="M324.0909,-167.3011C324.0909,-167.3011 272.0286,-167.3011 272.0286,-167.3011 268.7949,-167.3011 265.5612,-164.0674 265.5612,-160.8337 265.5612,-160.8337 265.5612,-154.3663 265.5612,-154.3663 265.5612,-151.1326 268.7949,-147.8989 272.0286,-147.8989 272.0286,-147.8989 324.0909,-147.8989 324.0909,-147.8989 327.3246,-147.8989 330.5583,-151.1326 330.5583,-154.3663 330.5583,-154.3663 330.5583,-160.8337 330.5583,-160.8337 330.5583,-164.0674 327.3246,-167.3011 324.0909,-167.3011"></path>
<text text-anchor="middle" x="298.0598" y="-154.3" font-family="Roboto Condensed, sans-serif" font-size="11.00" fill="#000000">buffer@5.4.3</text>
</g>
<!-- crc@3.8.0&#45;&gt;buffer@5.4.3 -->
<g id="edge8" class="edge">

<path fill="none" stroke="#000000" d="M197.0261,-157.6C213.6934,-157.6 235.8378,-157.6 255.1464,-157.6"></path>
<polygon fill="#000000" stroke="#000000" points="255.2341,-161.1001 265.234,-157.6 255.234,-154.1001 255.2341,-161.1001"></polygon>
</g>
<!-- core&#45;util&#45;is@1.0.2 -->
<g id="node6" class="node module-core_util_is maintainer-isaacs license-mit">

<path fill="none" stroke="#000000" d="M334.9802,-130.3011C334.9802,-130.3011 261.1393,-130.3011 261.1393,-130.3011 257.9057,-130.3011 254.672,-127.0674 254.672,-123.8337 254.672,-123.8337 254.672,-117.3663 254.672,-117.3663 254.672,-114.1326 257.9057,-110.8989 261.1393,-110.8989 261.1393,-110.8989 334.9802,-110.8989 334.9802,-110.8989 338.2138,-110.8989 341.4475,-114.1326 341.4475,-117.3663 341.4475,-117.3663 341.4475,-123.8337 341.4475,-123.8337 341.4475,-127.0674 338.2138,-130.3011 334.9802,-130.3011"></path>
<text text-anchor="middle" x="298.0598" y="-117.3" font-family="Roboto Condensed, sans-serif" font-size="11.00" fill="#000000">core-util-is@1.0.2</text>
</g>
<!-- is&#45;type&#45;of@1.2.1&#45;&gt;core&#45;util&#45;is@1.0.2 -->
<g id="edge5" class="edge">

<path fill="none" stroke="#000000" d="M204.3428,-93.2247C219.7614,-97.7286 238.3287,-103.1522 254.8553,-107.9797"></path>
<polygon fill="#000000" stroke="#000000" points="254.255,-111.4506 264.8352,-110.8949 256.2178,-104.7314 254.255,-111.4506"></polygon>
</g>
<!-- is&#45;class&#45;hotfix@0.0.6 -->
<g id="node8" class="node module-is_class_hotfix maintainer-fengmk2 license-mit">

<path fill="none" stroke="#000000" d="M342.0361,-93.3011C342.0361,-93.3011 254.0834,-93.3011 254.0834,-93.3011 250.8498,-93.3011 247.6161,-90.0674 247.6161,-86.8337 247.6161,-86.8337 247.6161,-80.3663 247.6161,-80.3663 247.6161,-77.1326 250.8498,-73.8989 254.0834,-73.8989 254.0834,-73.8989 342.0361,-73.8989 342.0361,-73.8989 345.2697,-73.8989 348.5034,-77.1326 348.5034,-80.3663 348.5034,-80.3663 348.5034,-86.8337 348.5034,-86.8337 348.5034,-90.0674 345.2697,-93.3011 342.0361,-93.3011"></path>
<text text-anchor="middle" x="298.0598" y="-80.3" font-family="Roboto Condensed, sans-serif" font-size="11.00" fill="#000000">is-class-hotfix@0.0.6</text>
</g>
<!-- is&#45;type&#45;of@1.2.1&#45;&gt;is&#45;class&#45;hotfix@0.0.6 -->
<g id="edge7" class="edge">

<path fill="none" stroke="#000000" d="M211.8196,-83.6C220.0418,-83.6 228.8592,-83.6 237.6034,-83.6"></path>
<polygon fill="#000000" stroke="#000000" points="237.7946,-87.1001 247.7946,-83.6 237.7945,-80.1001 237.7946,-87.1001"></polygon>
</g>
<!-- isstream@0.1.2 -->
<g id="node10" class="node module-isstream maintainer-rvagg license-mit">

<path fill="none" stroke="#000000" d="M328.8768,-56.3011C328.8768,-56.3011 267.2427,-56.3011 267.2427,-56.3011 264.009,-56.3011 260.7753,-53.0674 260.7753,-49.8337 260.7753,-49.8337 260.7753,-43.3663 260.7753,-43.3663 260.7753,-40.1326 264.009,-36.8989 267.2427,-36.8989 267.2427,-36.8989 328.8768,-36.8989 328.8768,-36.8989 332.1105,-36.8989 335.3442,-40.1326 335.3442,-43.3663 335.3442,-43.3663 335.3442,-49.8337 335.3442,-49.8337 335.3442,-53.0674 332.1105,-56.3011 328.8768,-56.3011"></path>
<text text-anchor="middle" x="298.0598" y="-43.3" font-family="Roboto Condensed, sans-serif" font-size="11.00" fill="#000000">isstream@0.1.2</text>
</g>
<!-- is&#45;type&#45;of@1.2.1&#45;&gt;isstream@0.1.2 -->
<g id="edge9" class="edge">

<path fill="none" stroke="#000000" d="M204.3428,-73.9753C219.7614,-69.4714 238.3287,-64.0478 254.8553,-59.2203"></path>
<polygon fill="#000000" stroke="#000000" points="256.2178,-62.4686 264.8352,-56.3051 254.255,-55.7494 256.2178,-62.4686"></polygon>
</g>
<!-- ms@2.1.2 -->
<g id="node7" class="node module-ms maintainer-alexaltea maintainer-anatrajkovska maintainer-andybitz maintainer-arunoda maintainer-arzafran maintainer-atcastle maintainer-b3nnyl maintainer-caarlos0 maintainer-codetheory maintainer-coetry maintainer-dav_is maintainer-fivepointseven maintainer-guybedford maintainer-hharnisc maintainer-huvik maintainer-iamevilrabbit maintainer-igorklopov maintainer-ijjk maintainer-janicklas_ralph maintainer-javivelasco maintainer-joecohens maintainer-juancampa maintainer-leo maintainer-lfades maintainer-lucleray maintainer-manovotny maintainer-marcosnils maintainer-matheuss maintainer-mfix22 maintainer-mglagola maintainer-msweeneydev maintainer-nkzawa maintainer-olliv maintainer-paco maintainer-paulogdm maintainer-quietshu maintainer-rabaut maintainer-ragojose maintainer-rauchg maintainer-sarupbanskota maintainer-skllcrn maintainer-sophearak maintainer-styfle maintainer-timer maintainer-timneutkens maintainer-tootallnate maintainer-umegaya maintainer-williamli maintainer-zeit_bot license-mit">

<path fill="none" stroke="#000000" d="M317.0571,-19.3011C317.0571,-19.3011 279.0624,-19.3011 279.0624,-19.3011 275.8287,-19.3011 272.595,-16.0674 272.595,-12.8337 272.595,-12.8337 272.595,-6.3663 272.595,-6.3663 272.595,-3.1326 275.8287,.1011 279.0624,.1011 279.0624,.1011 317.0571,.1011 317.0571,.1011 320.2908,.1011 323.5245,-3.1326 323.5245,-6.3663 323.5245,-6.3663 323.5245,-12.8337 323.5245,-12.8337 323.5245,-16.0674 320.2908,-19.3011 317.0571,-19.3011"></path>
<text text-anchor="middle" x="298.0598" y="-6.3" font-family="Roboto Condensed, sans-serif" font-size="11.00" fill="#000000">ms@2.1.2</text>
</g>
<!-- debug@3.2.6&#45;&gt;ms@2.1.2 -->
<g id="edge6" class="edge">

<path fill="none" stroke="#000000" d="M204.0131,-23.707C221.866,-21.0291 244.0151,-17.7067 262.3333,-14.959"></path>
<polygon fill="#000000" stroke="#000000" points="262.9685,-18.4029 272.3387,-13.4582 261.9301,-11.4804 262.9685,-18.4029"></polygon>
</g>
<!-- ieee754@1.1.13 -->
<g id="node11" class="node module-ieee754 maintainer-feross license-bsd_3_clause">

<path fill="none" stroke="#000000" d="M456.4846,-185.3011C456.4846,-185.3011 391.7479,-185.3011 391.7479,-185.3011 388.5143,-185.3011 385.2806,-182.0674 385.2806,-178.8337 385.2806,-178.8337 385.2806,-172.3663 385.2806,-172.3663 385.2806,-169.1326 388.5143,-165.8989 391.7479,-165.8989 391.7479,-165.8989 456.4846,-165.8989 456.4846,-165.8989 459.7182,-165.8989 462.9519,-169.1326 462.9519,-172.3663 462.9519,-172.3663 462.9519,-178.8337 462.9519,-178.8337 462.9519,-182.0674 459.7182,-185.3011 456.4846,-185.3011"></path>
<text text-anchor="middle" x="424.1163" y="-172.3" font-family="Roboto Condensed, sans-serif" font-size="11.00" fill="#000000">ieee754@1.1.13</text>
</g>
<!-- buffer@5.4.3&#45;&gt;ieee754@1.1.13 -->
<g id="edge10" class="edge">

<path fill="none" stroke="#000000" d="M330.8505,-162.2823C344.3644,-164.212 360.3087,-166.4887 375.1556,-168.6088"></path>
<polygon fill="#000000" stroke="#000000" points="374.8211,-172.0964 385.2155,-170.0452 375.8107,-165.1667 374.8211,-172.0964"></polygon>
</g>
<!-- base64&#45;js@1.3.1 -->
<g id="node12" class="node module-base64_js maintainer-beatgammit maintainer-feross license-mit">

<path fill="none" stroke="#000000" d="M457.3199,-148.3011C457.3199,-148.3011 390.9126,-148.3011 390.9126,-148.3011 387.679,-148.3011 384.4453,-145.0674 384.4453,-141.8337 384.4453,-141.8337 384.4453,-135.3663 384.4453,-135.3663 384.4453,-132.1326 387.679,-128.8989 390.9126,-128.8989 390.9126,-128.8989 457.3199,-128.8989 457.3199,-128.8989 460.5535,-128.8989 463.7872,-132.1326 463.7872,-135.3663 463.7872,-135.3663 463.7872,-141.8337 463.7872,-141.8337 463.7872,-145.0674 460.5535,-148.3011 457.3199,-148.3011"></path>
<text text-anchor="middle" x="424.1163" y="-135.3" font-family="Roboto Condensed, sans-serif" font-size="11.00" fill="#000000">base64-js@1.3.1</text>
</g>
<!-- buffer@5.4.3&#45;&gt;base64&#45;js@1.3.1 -->
<g id="edge11" class="edge">

<path fill="none" stroke="#000000" d="M330.8505,-152.6576C344.1273,-150.6564 359.75,-148.3017 374.3731,-146.0976"></path>
<polygon fill="#000000" stroke="#000000" points="374.9295,-149.5534 384.2961,-144.6019 373.8861,-142.6315 374.9295,-149.5534"></polygon>
</g>
</g>
</svg>